ik trial
nRows=4
nColumns=135

# SIMM Motion File Header:
name ik trial
datacolumns 135
datarows 4
otherdata 1
range 0.65000000 0.67500000
endheader
time	pelvis_tx	pelvis_ty	pelvis_tz	pelvis_tilt	pelvis_list	pelvis_rotation	hip_flexion_r	hip_adduction_r	hip_rotation_r	knee_angle_r	ankle_angle_r	hip_flexion_l	hip_adduction_l	hip_rotation_l	knee_angle_l	ankle_angle_l	lumbar_extension	lumbar_bending	lumbar_rotation	subtalar_angle_r	mtp_angle_r	subtalar_angle_l	mtp_angle_l	RASI_tx	RASI_ty	RASI_tz	LASI_tx	LASI_ty	LASI_tz	SACR_tx	SACR_ty	SACR_tz	RTH1_tx	RTH1_ty	RTH1_tz	RTH2_tx	RTH2_ty	RTH2_tz	RTH3_tx	RTH3_ty	RTH3_tz	RTB1_tx	RTB1_ty	RTB1_tz	RTB2_tx	RTB2_ty	RTB2_tz	RTB3_tx	RTB3_ty	RTB3_tz	RCAL_tx	RCAL_ty	RCAL_tz	RTOE_tx	RTOE_ty	RTOE_tz	RMT5_tx	RMT5_ty	RMT5_tz	LTH1_tx	LTH1_ty	LTH1_tz	LTH2_tx	LTH2_ty	LTH2_tz	LTH3_tx	LTH3_ty	LTH3_tz	LTB1_tx	LTB1_ty	LTB1_tz	LTB2_tx	LTB2_ty	LTB2_tz	LTB3_tx	LTB3_ty	LTB3_tz	LCAL_tx	LCAL_ty	LCAL_tz	LTOE_tx	LTOE_ty	LTOE_tz	LMT5_tx	LMT5_ty	LMT5_tz	LPSI_tx	LPSI_ty	LPSI_tz	RPSI_tx	RPSI_ty	RPSI_tz	RACR_tx	RACR_ty	RACR_tz	LACR_tx	LACR_ty	LACR_tz	RElbow_tx	RElbow_ty	RElbow_tz	LElbow_tx	LElbow_ty	LElbow_tz	RWrist_tx	RWrist_ty	RWrist_tz	LWrist_tx	LWrist_ty	LWrist_tz	C7_tx	C7_ty	C7_tz	CLAV_tx	CLAV_ty	CLAV_tz	ground_force_vx	ground_force_vy	ground_force_vz	ground_force_px	ground_force_py	ground_force_pz	ground_torque_x	ground_torque_y	ground_torque_z	ground_force_vx	ground_force_vy	ground_force_vz	ground_force_px	ground_force_py	ground_force_pz	ground_torque_x	ground_torque_y	ground_torque_z
      0.65000000	     -0.83188139	      1.02626763	     -0.23167879	     19.83988054	      4.59491717	     -5.77763555	     -2.15358926	     -8.54957045	      3.32631843	    -66.98904701	      0.01444377	    -11.10785930	      8.98601905	      3.09742201	    -16.65601893	      6.27590177	    -29.38277595	     -7.51063143	      2.83910249	      0.00000000	      0.00000000	      0.00000000	      0.00000000	     -0.82000640	      1.03758025	     -0.11428070	     -0.80481000	      1.05549397	     -0.34329407	     -0.99592331	      1.07083231	     -0.24432037	     -0.85344621	      0.85506512	     -0.06438977	     -0.78574829	      0.61550707	     -0.07028769	     -0.74634672	      0.76552546	     -0.09302651	     -0.82327399	      0.46427965	     -0.06753894	     -1.03638852	      0.29557883	     -0.10347285	     -0.93439900	      0.34654108	     -0.09273894	     -1.14979004	      0.26620425	     -0.17514136	     -1.01469313	      0.10534936	     -0.11402871	     -1.08614749	      0.13462841	     -0.05285015	     -0.83199190	      0.84624606	     -0.40707237	     -0.81042168	      0.62732918	     -0.37814519	     -0.76394312	      0.76514194	     -0.37440783	     -0.79716548	      0.42062547	     -0.36820522	     -0.86421800	      0.17145084	     -0.32884658	     -0.79945994	      0.31158679	     -0.33200360	     -0.95417640	      0.07643829	     -0.27231973	     -0.73321195	      0.07272165	     -0.28043172	     -0.79038598	      0.04230919	     -0.35815411	     -0.99219457	      1.07584262	     -0.29265831	     -0.99965207	      1.06582198	     -0.19598242	     -0.89907137	      1.50839916	     -0.06779449	     -0.90206499	      1.51094305	     -0.41438445	     -0.90351311	      1.14770221	      0.01833487	     -0.99021151	      1.15888309	     -0.48490331	     -0.79031593	      0.90159989	      0.04390113	     -0.98146363	      0.89667541	     -0.53300046	     -0.97109891	      1.54320837	     -0.24342249	     -0.81691511	      1.45052405	     -0.23669654	      0.00000000	      0.00000000	      0.00000000	      0.00000000	      0.00000000	      0.00000000	      0.00000000	      0.00000000	      0.00000000	    -50.76339100	    504.78872100	     25.04792900	     -0.80278700	     -0.00600000	     -0.30807100	      0.00000000	      1.54269900	      0.00000000
      0.65833300	     -0.81756936	      1.02896542	     -0.23309119	     20.11681119	      4.27422028	     -5.21814415	     -1.37840323	     -8.03156438	      2.77616755	    -65.83232096	      1.32910352	    -13.19145487	      8.62781584	      3.80211502	    -15.15990537	      6.32054092	    -29.71565011	     -6.88346720	      2.31217470	      0.00000000	      0.00000000	      0.00000000	      0.00000000	     -0.80544556	      1.04049759	     -0.11582846	     -0.79161799	      1.05730025	     -0.34510609	     -0.98212454	      1.07296138	     -0.24492451	     -0.83591150	      0.85882983	     -0.06484850	     -0.76334867	      0.62068745	     -0.07084677	     -0.72700907	      0.77157446	     -0.09414263	     -0.79735101	      0.46764133	     -0.06854040	     -1.00327854	      0.29027431	     -0.10492790	     -0.90350398	      0.34543696	     -0.09395798	     -1.11598357	      0.25443255	     -0.17664746	     -0.97123548	      0.10287103	     -0.11438072	     -1.04390417	      0.12846802	     -0.05315570	     -0.82132832	      0.84707186	     -0.40766228	     -0.80545204	      0.62751288	     -0.37879278	     -0.75535434	      0.76470272	     -0.37441235	     -0.79592592	      0.42045706	     -0.36925746	     -0.86403304	      0.17160001	     -0.32901596	     -0.79863179	      0.31144960	     -0.33295327	     -0.95412735	      0.07652137	     -0.27225881	     -0.73314500	      0.07270232	     -0.28040771	     -0.79035153	      0.04232965	     -0.35809795	     -0.97866584	      1.07765613	     -0.29324707	     -0.98558327	      1.06826661	     -0.19660195	     -0.88567263	      1.51017184	     -0.06825105	     -0.88750512	      1.51370357	     -0.41467205	     -0.89535992	      1.14988739	      0.01749864	     -0.96843198	      1.15973195	     -0.48657693	     -0.78951670	      0.90113657	      0.04691198	     -0.94822071	      0.89750999	     -0.53249181	     -0.95715018	      1.54531189	     -0.24401003	     -0.80312307	      1.45299651	     -0.23693746	      0.00000000	      0.00000000	      0.00000000	      0.00000000	      0.00000000	      0.00000000	      0.00000000	      0.00000000	      0.00000000	    -45.90778200	    477.59365700	     21.23053700	     -0.79440800	     -0.00600000	     -0.30797100	      0.00000000	      1.32396500	      0.00000000
      0.66666700	     -0.80328445	      1.03133830	     -0.23456472	     20.35377801	      3.94668098	     -4.61624598	     -0.64696312	     -7.52148347	      2.16825639	    -64.42909793	      2.45415883	    -15.24297898	      8.20504220	      4.49616149	    -13.61648793	      6.31976719	    -30.00996186	     -6.22670571	      1.78385184	      0.00000000	      0.00000000	      0.00000000	      0.00000000	     -0.79080379	      1.04306061	     -0.11741861	     -0.77850337	      1.05874634	     -0.34700041	     -0.96831505	      1.07479004	     -0.24545247	     -0.81856885	      0.86237787	     -0.06528487	     -0.74140811	      0.62565497	     -0.07140468	     -0.70799859	      0.77736828	     -0.09529185	     -0.77180334	      0.47065386	     -0.06952411	     -0.96974297	      0.28434564	     -0.10627209	     -0.87247779	      0.34388147	     -0.09515208	     -1.08129211	      0.24201476	     -0.17790125	     -0.92734725	      0.10029469	     -0.11494776	     -1.00114581	      0.12190997	     -0.05360719	     -0.81074536	      0.84768816	     -0.40836329	     -0.80088666	      0.62757739	     -0.37946970	     -0.74699075	      0.76406248	     -0.37448751	     -0.79484716	      0.42033009	     -0.37035369	     -0.86386231	      0.17174556	     -0.32917418	     -0.79791551	      0.31133727	     -0.33391683	     -0.95408467	      0.07663443	     -0.27220280	     -0.73308794	      0.07267055	     -0.28035947	     -0.79032404	      0.04236145	     -0.35802427	     -0.96515691	      1.07916587	     -0.29376858	     -0.97147322	      1.07041422	     -0.19713637	     -0.87213083	      1.51161498	     -0.06871535	     -0.87295931	      1.51616040	     -0.41495481	     -0.88730725	      1.15183977	      0.01681543	     -0.94663031	      1.16046795	     -0.48824564	     -0.78865306	      0.90076119	      0.04985149	     -0.91485984	      0.89874459	     -0.53179730	     -0.94319200	      1.54713687	     -0.24459310	     -0.78928353	      1.45511120	     -0.23720933	      0.00000000	      0.00000000	      0.00000000	      0.00000000	      0.00000000	      0.00000000	      0.00000000	      0.00000000	      0.00000000	    -41.57339100	    455.98250700	     16.45164000	     -0.78820700	     -0.00600000	     -0.30754500	      0.00000000	      1.05132300	      0.00000000
      0.67500000	     -0.78906522	      1.03333580	     -0.23608230	     20.53386076	      3.61246627	     -3.96423814	      0.06057125	     -7.01153208	      1.50906665	    -62.79129265	      3.38967711	    -17.21930043	      7.71408394	      5.16165024	    -12.06290405	      6.28262177	    -30.25273373	     -5.54115640	      1.25399865	      0.00000000	      0.00000000	      0.00000000	      0.00000000	     -0.77610913	      1.04525419	     -0.11903385	     -0.76545807	      1.05981989	     -0.34893188	     -0.95450415	      1.07630117	     -0.24591325	     -0.80142435	      0.86567735	     -0.06567612	     -0.71991675	      0.63036607	     -0.07198405	     -0.68933954	      0.78284351	     -0.09647514	     -0.74663887	      0.47326843	     -0.07050154	     -0.93577138	      0.27786748	     -0.10749837	     -0.84134490	      0.34190635	     -0.09632704	     -1.04570604	      0.22910402	     -0.17893545	     -0.88305170	      0.09767517	     -0.11568852	     -0.95788831	      0.11502933	     -0.05419602	     -0.80037079	      0.84801987	     -0.40915542	     -0.79663059	      0.62752081	     -0.38026274	     -0.73896554	      0.76318843	     -0.37463957	     -0.79381359	      0.42020707	     -0.37139179	     -0.86363804	      0.17186654	     -0.32933875	     -0.79723627	      0.31122920	     -0.33476633	     -0.95402544	      0.07678452	     -0.27216538	     -0.73305019	      0.07262404	     -0.28029934	     -0.79030229	      0.04239411	     -0.35794954	     -0.95167217	      1.08035482	     -0.29423040	     -0.95733614	      1.07224755	     -0.19759610	     -0.85845349	      1.51270954	     -0.06918355	     -0.85843915	      1.51828114	     -0.41524127	     -0.87932645	      1.15354778	      0.01629546	     -0.92480766	      1.16104974	     -0.48990779	     -0.78767938	      0.90043509	      0.05274889	     -0.88141836	      0.90036771	     -0.53090009	     -0.92923554	      1.54867541	     -0.24517750	     -0.77539111	      1.45684591	     -0.23751620	      0.00000000	      0.00000000	      0.00000000	      0.00000000	      0.00000000	      0.00000000	      0.00000000	      0.00000000	      0.00000000	    -37.58485500	    439.35609700	     11.57099600	     -0.78359400	     -0.00600000	     -0.30763000	      0.00000000	      0.81343900	      0.00000000
